<svg xmlns="http://www.w3.org/2000/svg" viewBox="0 0 64 64" role="img" aria-label="Jozankei Time Map">
  <defs>
    <linearGradient id="pin" x1="14" y1="10" x2="50" y2="54" gradientUnits="userSpaceOnUse">
      <stop offset="0" stop-color="#ffdea9"/>
      <stop offset="0.48" stop-color="#f2bf5b"/>
      <stop offset="0.52" stop-color="#244777"/>
      <stop offset="1" stop-color="#172635"/>
    </linearGradient>
    <linearGradient id="water" x1="20" y1="34" x2="44" y2="46" gradientUnits="userSpaceOnUse">
      <stop stop-color="#cae9f3"/>
      <stop offset="1" stop-color="#7ac8ff"/>
    </linearGradient>
  </defs>
  <circle cx="32" cy="32" r="30" fill="#fff8f2"/>
  <circle cx="32" cy="32" r="28" fill="#eedcc7"/>
  <path fill="#172635" opacity=".12" d="M32 58c7-7 18-18 18-31 0-10-8-18-18-18S14 17 14 27c0 13 11 24 18 31Z"/>
  <path fill="url(#pin)" d="M32 56c7-7 17-18 17-30 0-9.4-7.6-17-17-17s-17 7.6-17 17c0 12 10 23 17 30Z"/>
  <path fill="#fff8f2" d="M32 39c7.2 0 13-5.8 13-13S39.2 13 32 13 19 18.8 19 26s5.8 13 13 13Z"/>
  <path fill="#ffdea9" d="M32 35.5c5.2 0 9.5-4.3 9.5-9.5S37.2 16.5 32 16.5 22.5 20.8 22.5 26s4.3 9.5 9.5 9.5Z"/>
  <path fill="#172635" d="M32 16.5c5.2 0 9.5 4.3 9.5 9.5s-4.3 9.5-9.5 9.5v-19Z" opacity=".92"/>
  <path fill="url(#water)" d="M23 31.5c2.6-2.1 5.4-2.5 8.4-1.2l1.6.7c2.8 1.2 5.4.8 8-1.3v4.6c-2.7 2-5.5 2.3-8.4.9l-1.4-.7c-2.8-1.2-5.5-.8-8.2 1.2v-4.2Z"/>
  <path fill="none" stroke="#fff8f2" stroke-linecap="round" stroke-width="2.6" d="M25 20.8c2.2-2 4.2-2 6 0s3.8 2 6 0"/>
  <path fill="none" stroke="#fff8f2" stroke-linecap="round" stroke-width="2.6" d="M26.5 25.2c1.6-1.4 3.1-1.4 4.7 0s3.1 1.4 4.7 0"/>
</svg>
