<svg width="1600" height="900" viewBox="0 0 1600 900" fill="none" xmlns="http://www.w3.org/2000/svg">
  <rect width="1600" height="900" fill="#142031"/>
  <rect width="1600" height="900" fill="url(#sky)"/>
  <circle cx="1183" cy="170" r="74" fill="#FFF5D8"/>
  <circle cx="1183" cy="170" r="97" fill="#FFF5D8" fill-opacity="0.12"/>
  <path d="M0 618C126 562 229 534 309 534C424 534 532 584 632 683C724 774 837 819 970 819C1130 819 1340 733 1600 562V900H0V618Z" fill="url(#riverGlow)" fill-opacity="0.54"/>
  <path d="M0 589C165 503 316 460 454 460C604 460 753 515 902 625C1035 723 1180 772 1337 772C1428 772 1516 757 1600 728V900H0V589Z" fill="#17293E"/>
  <path d="M0 650C126 585 231 553 315 553C432 553 541 604 641 704C733 796 847 842 982 842C1125 842 1331 774 1600 636V900H0V650Z" fill="#0F1826"/>
  <path d="M220 488L322 370L423 488H220Z" fill="#2F415C"/>
  <path d="M322 370L466 214L609 370H322Z" fill="#40587A"/>
  <path d="M514 432L668 244L821 432H514Z" fill="#516E95"/>
  <path d="M703 493L903 263L1102 493H703Z" fill="#6882A5"/>
  <path d="M941 452L1097 277L1254 452H941Z" fill="#4A6385"/>
  <path d="M1135 509L1281 341L1427 509H1135Z" fill="#334A69"/>
  <circle cx="1016" cy="639" r="7" fill="#FFD38B"/>
  <circle cx="1068" cy="666" r="6" fill="#FFD38B"/>
  <circle cx="1120" cy="690" r="6" fill="#FFD38B"/>
  <circle cx="1171" cy="709" r="5" fill="#FFD38B"/>
  <circle cx="1225" cy="728" r="5" fill="#FFD38B"/>
  <circle cx="915" cy="662" r="5" fill="#FFD38B"/>
  <circle cx="872" cy="641" r="4" fill="#FFD38B"/>
  <path d="M780 726C860 688 938 670 1013 670C1111 670 1209 705 1308 774" stroke="#FFF3D2" stroke-width="10" stroke-linecap="round" stroke-opacity="0.4"/>
  <defs>
    <linearGradient id="sky" x1="800" y1="0" x2="800" y2="900" gradientUnits="userSpaceOnUse">
      <stop stop-color="#24354D"/>
      <stop offset="0.45" stop-color="#1C2940"/>
      <stop offset="1" stop-color="#0D1522"/>
    </linearGradient>
    <linearGradient id="riverGlow" x1="800" y1="562" x2="800" y2="900" gradientUnits="userSpaceOnUse">
      <stop stop-color="#69B8D7"/>
      <stop offset="1" stop-color="#2F5D7A"/>
    </linearGradient>
  </defs>
</svg>
